<svg id="Layer_1" data-name="Layer 1" xmlns="http://www.w3.org/2000/svg" viewBox="0 0 489.02 59.86"><defs><style>.cls-1{fill:#fff;}</style></defs><title>Tribe of Noise Logo White 01</title><path class="cls-1" d="M30.37,17.58V61.8H15.63V17.58H3.52V5.1H42.47V17.58Z" transform="translate(-3.52 -3.52)"/><path class="cls-1" d="M89.62,61.8H71.28L57.21,40V61.8H42.47V5.1H65.41a22.42,22.42,0,0,1,8.27,1.39A15.6,15.6,0,0,1,83,15.85a19.34,19.34,0,0,1,1.17,6.77q0,6.47-3.13,10.49a15.71,15.71,0,0,1-9.21,5.45ZM57.21,30.44H60q4.35,0,6.69-1.8A6.2,6.2,0,0,0,69,23.45a6.17,6.17,0,0,0-2.33-5.19A10.78,10.78,0,0,0,60,16.45H57.21Z" transform="translate(-3.52 -3.52)"/><path class="cls-1" d="M104.36,5.1V61.8H89.62V5.1Z" transform="translate(-3.52 -3.52)"/><path class="cls-1" d="M105.44,5.1h22q7.82,0,11.88,3.76t4.06,10.83a14.63,14.63,0,0,1-1.54,7.1,12.93,12.93,0,0,1-4.7,4.78,17.7,17.7,0,0,1,5.38,1.84,11.77,11.77,0,0,1,3.61,3.05,11.41,11.41,0,0,1,2,4.06,18.64,18.64,0,0,1,.6,4.81,17,17,0,0,1-1.39,7.07,14.4,14.4,0,0,1-3.91,5.19,16.73,16.73,0,0,1-6.13,3.16,29.06,29.06,0,0,1-8.12,1H105.44Zm14.74,22.26h2.71q6.92,0,6.92-5.49t-6.92-5.49h-2.71Zm0,23h3.23q5.57,0,8-1.43a4.93,4.93,0,0,0,2.4-4.59,4.93,4.93,0,0,0-2.4-4.58c-1.61-1-4.27-1.43-8-1.43h-3.23Z" transform="translate(-3.52 -3.52)"/><path class="cls-1" d="M180.94,17.58H163.42v9.48H180V39.54H163.42v9.78h17.52V61.8H148.68V5.1h32.26Z" transform="translate(-3.52 -3.52)"/><path class="cls-1" d="M193.81,33.45A29.22,29.22,0,0,1,212.49,5.81a36.11,36.11,0,0,1,25.31,0,30,30,0,0,1,10,6.36,29.29,29.29,0,0,1,6.51,9.51,29.71,29.71,0,0,1,2.32,11.77,29.71,29.71,0,0,1-2.32,11.77,29.29,29.29,0,0,1-6.51,9.51,29.79,29.79,0,0,1-10,6.35,36,36,0,0,1-25.31,0,29.31,29.31,0,0,1-18.68-27.63Zm15.41,0a15.14,15.14,0,0,0,1.28,6.24A15.69,15.69,0,0,0,219,47.93a16.78,16.78,0,0,0,12.26,0,16.08,16.08,0,0,0,5.12-3.28,15.31,15.31,0,0,0,3.49-5,15,15,0,0,0,1.28-6.24,15,15,0,0,0-1.28-6.24,15.46,15.46,0,0,0-3.49-5,16.24,16.24,0,0,0-11.25-4.43A16.42,16.42,0,0,0,219,19a15.6,15.6,0,0,0-8.53,8.24A15.11,15.11,0,0,0,209.22,33.45Z" transform="translate(-3.52 -3.52)"/><path class="cls-1" d="M289.09,17.58H271.35v9.48h16.16V39.54H271.35V61.8H256.61V5.1h32.48Z" transform="translate(-3.52 -3.52)"/><path class="cls-1" d="M304.31,61.8V5.1h14.75l27.22,34.67V5.1h14.66V61.8H346.28L319.06,27.13V61.8Z" transform="translate(-3.52 -3.52)"/><path class="cls-1" d="M360.94,23.88a20.3,20.3,0,0,1,1.58-8A19.85,19.85,0,0,1,373.65,5.08a24.54,24.54,0,0,1,17.22,0,20.49,20.49,0,0,1,6.78,4.32,19.86,19.86,0,0,1,4.42,6.47,20.12,20.12,0,0,1,1.58,8,20.16,20.16,0,0,1-1.58,8,19.86,19.86,0,0,1-4.42,6.47,20.49,20.49,0,0,1-6.78,4.32,24.54,24.54,0,0,1-17.22,0,19.85,19.85,0,0,1-11.13-10.79A20.33,20.33,0,0,1,360.94,23.88Zm10.49,0a10.32,10.32,0,0,0,.87,4.25,10.65,10.65,0,0,0,5.8,5.6,11.4,11.4,0,0,0,8.34,0,11,11,0,0,0,3.48-2.23,10.47,10.47,0,0,0,2.38-3.37,10.82,10.82,0,0,0,0-8.5,10.47,10.47,0,0,0-2.38-3.37,11,11,0,0,0-7.65-3,11.08,11.08,0,0,0-4.17.79,10.65,10.65,0,0,0-5.8,5.6A10.32,10.32,0,0,0,371.43,23.88Z" transform="translate(-3.52 -3.52)"/><path class="cls-1" d="M418.4,5.1V61.8H403.65V5.1Z" transform="translate(-3.52 -3.52)"/><path class="cls-1" d="M452.08,19.61a18.08,18.08,0,0,0-4.81-2.89,12.7,12.7,0,0,0-4.66-.94,7.61,7.61,0,0,0-4.67,1.35,4.22,4.22,0,0,0-1.8,3.53,3.53,3.53,0,0,0,.9,2.49,7.91,7.91,0,0,0,2.37,1.69,19.89,19.89,0,0,0,3.31,1.24c1.23.35,2.44.73,3.65,1.13q7.22,2.4,10.56,6.43t3.35,10.49A20.32,20.32,0,0,1,458.81,52a16.37,16.37,0,0,1-4.28,6.06A19.84,19.84,0,0,1,447.61,62a29.07,29.07,0,0,1-9.29,1.39A34.12,34.12,0,0,1,418.4,57l6.31-11.89a25.64,25.64,0,0,0,6.54,4.37,15.79,15.79,0,0,0,6.39,1.43c2.41,0,4.2-.56,5.38-1.66a5,5,0,0,0,1.77-3.76,5.11,5.11,0,0,0-.45-2.22,4.92,4.92,0,0,0-1.51-1.73,12.14,12.14,0,0,0-2.74-1.46c-1.13-.46-2.49-1-4.1-1.51-1.91-.6-3.77-1.26-5.6-2a17.58,17.58,0,0,1-4.89-2.9A13.35,13.35,0,0,1,422,29.12a16,16,0,0,1-1.31-6.95,20,20,0,0,1,1.39-7.63A16.88,16.88,0,0,1,426,8.67a17.52,17.52,0,0,1,6.16-3.8,23.36,23.36,0,0,1,8.16-1.35,35.6,35.6,0,0,1,8.8,1.17A38.22,38.22,0,0,1,458,8.11Z" transform="translate(-3.52 -3.52)"/><path class="cls-1" d="M492.54,17.58H475v9.48h16.54V39.54H475v9.78h17.52V61.8H460.28V5.1h32.26Z" transform="translate(-3.52 -3.52)"/></svg>